<?xml version="1.0" encoding="UTF-8"?>
<svg id="Layer_1" data-name="Layer 1" xmlns="http://www.w3.org/2000/svg" viewBox="0 0 450 80">
  <defs>
    <style>
      .cls-1, .cls-2 {
        fill: #077893;
      }

      .cls-3 {
        fill: #085377;
      }

      .cls-4, .cls-5 {
        fill: #ecf8fe;
      }

      .cls-2 {
        stroke: #eaeaea;
        stroke-miterlimit: 10;
        stroke-width: 1.12px;
      }

      .cls-5 {
        font-family: InkFree, 'Ink Free';
        font-size: 16.01px;
      }
    </style>
  </defs>
  <rect class="cls-1" width="450" height="80"/>
  <rect class="cls-2" x="10.52" y="28.72" width="65.87" height="44.78" rx="6.79" ry="6.79"/>
  <path class="cls-3" d="M29.19,49.24c7.25-6.89-5.7-20.39,4.32-30.59,5.77-5.87,10.91-6.71,21.07-6.72,8.72-.01,8.4-8.03,6.83-11.45,3.62,4.12,5.03,12.67-3.51,16.98-17.96,9.04-8.65,17.6-9.6,23.67s-7.66,11.7-19.1,8.13Z"/>
  <path class="cls-3" d="M44.05,50.11c7.08-1.6,6.5-10.96,15.77-10.22,7.84,.62,7.26-6.59,4.43-8.13,8.49,1.98,7.81,22.97-20.2,18.35Z"/>
  <path class="cls-4" d="M48.29,41.11c-.94,6.06-7.65,11.7-19.1,8.13,3.12-2.97,2.5-7.16,1.57-11.79h17.22c.3,1.3,.48,2.52,.3,3.66Z"/>
  <path class="cls-4" d="M44.05,50.11c7.08-1.6,6.5-10.96,15.77-10.22,3.35,.27,5.16-.9,5.92-2.44h3.18c.96,6.56-5.25,15.89-24.87,12.66Z"/>
  <g>
    <path class="cls-4" d="M19.87,64.28h0c0-.12,.1-.22,.22-.22h1.09c.3,0,.54-.24,.54-.54v-15c0-.3-.24-.54-.54-.54h-1.09c-.12,0-.22-.1-.22-.22h0c0-.12,.1-.22,.22-.22h5.19c.12,0,.22,.1,.22,.22h0c0,.12-.1,.22-.22,.22h-1.08c-.3,0-.54,.24-.54,.54v15c0,.3,.24,.54,.54,.54h7.74c.81,0,1.45-.11,1.94-.32,.48-.21,.85-.52,1.1-.93,.25-.4,.41-.89,.5-1.46,.07-.52,.11-1.09,.12-1.73,0-.11,.09-.21,.2-.21h0c.11,0,.21,.09,.21,.21v4.68c0,.11-.09,.21-.21,.21h-15.72c-.12,0-.22-.1-.22-.22Z"/>
    <path class="cls-4" d="M34.74,59.39c-.63,.32-1.56,.93-1.57,.93-.13,.1-.44,.31-.44,.31-.42,.28-.83,.52-1.09,.59-.32,.08-.58,.2-.82,.2-.17,0-.31-.04-.41-.12-.1-.08-.15-.22-.15-.42,0-.23,.03-.52,.1-.86,.05-.28,.13-.57,.22-.88,.65-.04,1.22-.11,1.69-.21,.53-.12,.96-.27,1.29-.46,.33-.18,.57-.4,.72-.64,.15-.24,.23-.5,.23-.78,0-.44-.21-.81-.64-1.12-.43-.31-1.03-.46-1.79-.46-.56,0-1.09,.11-1.58,.33-.5,.22-.94,.52-1.32,.91-.38,.39-.68,.83-.9,1.34-.22,.51-.33,1.04-.33,1.62,0,.37,.09,.72,.26,1.03,.17,.32,.43,.58,.77,.77,.35,.19,.78,.29,1.31,.29,.55,0,1.02-.13,1.45-.28,.31-.11,.72-.35,1.13-.62,.26-.19,.51-.37,.74-.53,0,0,.01,0,.01-.01,3.39-2.26,4.72-1.35,5.13-.5-.48-1.81-2.45-1.23-4-.43Zm-3.71-1.61c.15-.38,.3-.72,.46-1.03,.16-.31,.32-.56,.48-.75,.16-.18,.31-.28,.44-.28,.07,0,.12,.02,.14,.05,.02,.04,.04,.09,.04,.15,0,.09-.04,.25-.12,.48-.08,.23-.19,.49-.33,.77-.14,.29-.3,.56-.49,.83-.19,.27-.4,.5-.62,.68-.13,.11-.26,.18-.4,.23,.11-.38,.24-.76,.39-1.13Z"/>
    <path class="cls-4" d="M53.85,55.95c-.12-.27-.29-.49-.52-.67-.23-.17-.51-.26-.86-.26-.4,0-.74,.13-1,.4-.26,.27-.39,.6-.39,1,0,.42,.12,.76,.38,1.02,.25,.26,.59,.38,1.01,.38,.37,0,.68-.12,.93-.37,.21-.21,.33-.46,.36-.75,0,.03,0,.06,0,.09,0,.38-.08,.76-.24,1.15-.16,.39-.37,.76-.63,1.12-.26,.35-.55,.67-.86,.94-.31,.28-.62,.5-.93,.66-.31,.16-.6,.24-.86,.24-.13,0-.22-.03-.28-.09-.05-.06-.07-.2-.04-.42,.03-.22,.1-.59,.21-1.09l.52-2.24c.03-.14,.06-.27,.09-.4,.02-.13,.03-.24,.03-.33,0-.35-.15-.65-.44-.92s-.69-.4-1.19-.4c-.32,0-.6,.06-.84,.18-.24,.12-.45,.28-.63,.48-.95,1.33-1.59,2.66-2.43,3.64-.28,.33-.54,.64-.85,.88-.31,.24-.61,.43-.92,.56-.3,.13-.58,.2-.82,.2-.17,0-.31-.04-.41-.12-.1-.08-.15-.22-.15-.42,0-.23,.03-.52,.1-.86,.05-.28,.13-.57,.21-.88,.65-.04,1.22-.11,1.69-.21,.53-.12,.96-.27,1.29-.46,.33-.18,.57-.4,.72-.64s.23-.5,.23-.78c0-.44-.21-.81-.64-1.12-.43-.31-1.02-.46-1.79-.46-.56,0-1.09,.11-1.58,.33-.5,.22-.94,.52-1.32,.91-.38,.39-.68,.83-.9,1.34-.22,.51-.33,1.04-.33,1.62,0,.37,.09,.72,.26,1.03,.17,.32,.43,.58,.77,.77,.34,.19,.78,.29,1.31,.29s1.04-.09,1.45-.28c.41-.18,.76-.43,1.08-.7,.92-.78,1.76-2.22,2.32-3.13,.52-.85,.79-1.28,1.22-1.63,.09-.07,.17-.09,.23-.09,.06,0,.1,.02,.12,.05,.02,.03,.03,.08,.03,.14,0,.03,0,.08-.01,.13,0,.05-.01,.1-.02,.14l-.85,3.51c-.1,.44-.07,.8,.1,1.07,.17,.27,.43,.47,.78,.59s.73,.19,1.15,.19,.8-.09,1.21-.27c.41-.18,.8-.42,1.16-.74,.37-.31,.7-.66,.99-1.05s.52-.8,.68-1.22c.17-.42,.25-.83,.25-1.23,0-.29-.06-.57-.17-.84Zm-10.98,1.36c.14-.38,.3-.72,.46-1.03,.16-.31,.32-.56,.49-.75,.16-.19,.31-.28,.45-.28,.07,0,.12,.02,.14,.05s.04,.09,.04,.15c0,.09-.04,.24-.12,.47-.08,.23-.19,.49-.33,.77-.14,.29-.3,.56-.49,.84-.19,.27-.39,.5-.62,.68-.13,.11-.26,.18-.4,.23,.11-.38,.24-.76,.39-1.13Z"/>
    <path class="cls-4" d="M59.75,59.31c-.26,.35-.54,.64-.85,.88-.31,.24-.61,.43-.92,.56-.3,.13-.58,.2-.82,.2-.17,0-.31-.04-.41-.12-.1-.08-.15-.22-.15-.42,0-.23,.03-.52,.1-.86,.05-.28,.13-.57,.21-.88,.65-.04,1.22-.11,1.69-.21,.53-.12,.96-.27,1.29-.46,.33-.18,.57-.4,.72-.64s.23-.5,.23-.78c0-.44-.21-.81-.64-1.12-.43-.31-1.02-.46-1.79-.46-.56,0-1.09,.11-1.58,.33-.5,.22-.94,.52-1.32,.91-.38,.39-.68,.83-.9,1.34s-.33,1.04-.33,1.62c0,.37,.09,.72,.26,1.03,.17,.32,.43,.58,.77,.77,.34,.19,.78,.29,1.31,.29s1.04-.09,1.45-.28,.77-.42,1.08-.7c.2-.18,.39-.37,.55-.55,0,0,0,0,0-.01,.08-.1,.16-.2,.24-.3,.68-.86,1.54-1.94,2.47-1.56-.59-.41-1.41-.17-2.68,1.41Zm-2.38-2c.15-.38,.3-.72,.46-1.03,.16-.31,.32-.56,.49-.75,.16-.19,.31-.28,.44-.28,.07,0,.12,.02,.14,.05s.04,.09,.04,.15c0,.09-.04,.24-.12,.47-.08,.23-.19,.49-.33,.77-.14,.29-.3,.56-.49,.84-.19,.27-.39,.5-.62,.68-.13,.11-.26,.18-.4,.23,.12-.38,.24-.76,.39-1.13Z"/>
    <path class="cls-4" d="M36.57,52.5h.74c.39,0,.65,.4,.5,.75l-1.29,2.22,.42-1.83-.84-.21c-.09-.14-.1-.32-.04-.48l.06-.14c.07-.19,.26-.32,.46-.32Z"/>
  </g>
  <text class="cls-5" transform="translate(88.84 67.6)"><tspan x="0" y="0">Manage learning evaluation with ease</tspan></text>
</svg>